<svg width="20" height="20" fill="none" xmlns="http://www.w3.org/2000/svg"><path fill="#EBEBEB" d="M0 0h20v20H0z"/><g clip-path="url(#a)"><path fill="#D5DCE8" d="M-493-39H947v6528H-493z"/><g clip-path="url(#b)"><path fill="#F4F7FC" d="M-493-39H947v900H-493z"/></g><path fill="#F4F7FC" d="M-493-39H947V69H-493z"/><g filter="url(#c)" fill="#000"><path d="m-92.11 13.39 5.602-8.765H-85V16h-1.508V7.227L-92.109 16h-1.5V4.625h1.5v8.766Zm15.368-2.18v1.173h-4.469V11.21h4.469Zm-4.164-3.663V16h-1.446V7.547h1.446Zm5.336 0V16h-1.453V7.547h1.453Zm6.297 4.734h-2.774l-.016-1.156h2.266c.448 0 .82-.044 1.117-.133.302-.088.529-.221.68-.398a.977.977 0 0 0 .227-.656c0-.204-.045-.38-.133-.532a.966.966 0 0 0-.383-.383 1.888 1.888 0 0 0-.64-.226 4.376 4.376 0 0 0-.883-.078h-1.852V16h-1.445V7.547h3.296c.537 0 1.019.047 1.446.14.432.094.8.237 1.101.43.308.188.542.427.704.719.161.292.242.635.242 1.031a1.736 1.736 0 0 1-.618 1.336 2.497 2.497 0 0 1-.75.438c-.296.109-.638.18-1.023.21l-.562.43Zm0 3.719h-3.297l.718-1.172h2.579c.4 0 .734-.05 1-.148.265-.104.463-.25.593-.438.136-.193.203-.422.203-.687a1.13 1.13 0 0 0-.203-.68c-.13-.193-.328-.338-.593-.438-.266-.104-.6-.156-1-.156h-2.196l.016-1.156h2.742l.523.438c.464.036.857.15 1.18.343.323.193.568.438.735.735.166.291.25.609.25.953 0 .396-.076.745-.227 1.047-.146.302-.36.554-.64.757a3.129 3.129 0 0 1-1.024.454 5.691 5.691 0 0 1-1.36.148Zm8.695.156a4.159 4.159 0 0 1-1.602-.297 3.632 3.632 0 0 1-1.226-.851 3.787 3.787 0 0 1-.782-1.297 4.756 4.756 0 0 1-.273-1.64v-.329c0-.687.102-1.3.305-1.836.203-.541.479-1 .828-1.375a3.547 3.547 0 0 1 1.187-.851 3.41 3.41 0 0 1 1.375-.29c.605 0 1.125.105 1.563.313.443.208.805.5 1.086.875.281.37.49.807.625 1.313.135.5.203 1.046.203 1.64v.649h-6.313V11h4.868v-.11a3.6 3.6 0 0 0-.235-1.093 1.966 1.966 0 0 0-.625-.875c-.286-.23-.677-.344-1.172-.344a1.968 1.968 0 0 0-1.617.82 3.07 3.07 0 0 0-.46.993c-.11.39-.165.84-.165 1.351v.328c0 .401.055.779.164 1.133a2.9 2.9 0 0 0 .492.922c.22.266.482.474.79.625.312.151.666.227 1.062.227.51 0 .943-.105 1.297-.313.354-.208.664-.487.93-.836l.875.695c-.183.277-.414.54-.696.79a3.32 3.32 0 0 1-1.039.609c-.406.156-.888.234-1.445.234Zm8.36-1.187c.343 0 .66-.07.952-.211.292-.14.532-.333.72-.578a1.61 1.61 0 0 0 .32-.852h1.374c-.026.5-.195.966-.507 1.399-.308.427-.711.773-1.211 1.039-.5.26-1.05.39-1.649.39-.635 0-1.19-.112-1.664-.336a3.297 3.297 0 0 1-1.172-.922 4.117 4.117 0 0 1-.695-1.343 5.672 5.672 0 0 1-.227-1.617v-.329c0-.567.076-1.104.227-1.609.156-.51.388-.96.695-1.352.313-.39.703-.697 1.172-.921.474-.224 1.029-.336 1.664-.336.662 0 1.24.135 1.735.406.494.266.882.63 1.164 1.094.286.458.442.979.468 1.562h-1.375a2.083 2.083 0 0 0-.296-.945 1.852 1.852 0 0 0-.688-.672 1.922 1.922 0 0 0-1.008-.258c-.442 0-.815.089-1.117.266a1.958 1.958 0 0 0-.71.703 3.282 3.282 0 0 0-.376.976c-.073.355-.11.717-.11 1.086v.329c0 .37.037.734.11 1.093.073.36.195.685.367.977.177.292.414.526.711.703.302.172.677.258 1.125.258Zm8.437-7.422V16h-1.453V7.547h1.453Zm2.836 0v1.172h-7.07V7.547h7.07Zm.71 4.32v-.18c0-.609.09-1.174.266-1.695.177-.526.433-.982.766-1.367.333-.39.737-.693 1.21-.906a3.76 3.76 0 0 1 1.595-.328c.593 0 1.127.109 1.601.328a3.4 3.4 0 0 1 1.219.906c.338.385.596.841.773 1.367.177.521.266 1.086.266 1.695v.18c0 .61-.089 1.175-.266 1.695-.177.521-.435.977-.773 1.368a3.543 3.543 0 0 1-1.211.906c-.469.213-1 .32-1.594.32a3.857 3.857 0 0 1-1.601-.32 3.623 3.623 0 0 1-1.22-.906 4.129 4.129 0 0 1-.765-1.367 5.237 5.237 0 0 1-.265-1.696Zm1.446-.18v.18c0 .422.05.82.148 1.195.1.37.248.698.446.985.203.286.455.513.758.68.302.161.653.242 1.054.242.396 0 .742-.081 1.04-.242.301-.167.551-.394.75-.68.197-.287.346-.615.445-.985a4.45 4.45 0 0 0 .156-1.195v-.18c0-.416-.052-.81-.156-1.18a3.037 3.037 0 0 0-.454-.991 2.153 2.153 0 0 0-.75-.688 2.103 2.103 0 0 0-1.046-.25c-.396 0-.745.083-1.047.25a2.248 2.248 0 0 0-.75.688 3.136 3.136 0 0 0-.446.992c-.099.37-.148.763-.148 1.18Zm9.508-2.515V19.25h-1.453V7.547h1.328l.125 1.625Zm5.695 2.531v.164c0 .615-.073 1.185-.219 1.711-.146.521-.36.974-.64 1.36a2.915 2.915 0 0 1-1.024.898c-.406.213-.872.32-1.398.32-.537 0-1.01-.088-1.422-.265a2.805 2.805 0 0 1-1.047-.774 3.949 3.949 0 0 1-.687-1.219 7.051 7.051 0 0 1-.344-1.601v-.875a7.35 7.35 0 0 1 .351-1.68c.172-.495.399-.916.68-1.265a2.79 2.79 0 0 1 1.04-.805c.405-.188.874-.281 1.405-.281.532 0 1.003.104 1.414.312.412.203.758.495 1.04.875.28.38.492.836.632 1.367.146.526.22 1.112.22 1.758Zm-1.453.164v-.164c0-.422-.044-.818-.133-1.187a3 3 0 0 0-.414-.985 1.972 1.972 0 0 0-.703-.672c-.287-.166-.628-.25-1.023-.25-.365 0-.683.063-.954.188a2.061 2.061 0 0 0-.68.508 2.693 2.693 0 0 0-.46.718 4.13 4.13 0 0 0-.258.829v2.023c.104.365.25.708.437 1.031.188.318.438.576.75.774.313.192.706.289 1.18.289.39 0 .727-.081 1.008-.242.286-.167.52-.394.703-.68.188-.287.326-.615.414-.985.089-.374.133-.773.133-1.195Zm8.281 2.688v-4.352c0-.333-.068-.622-.203-.867a1.33 1.33 0 0 0-.594-.578c-.265-.136-.593-.203-.984-.203a2.31 2.31 0 0 0-.961.187c-.27.125-.484.29-.64.492a1.078 1.078 0 0 0-.227.657h-1.445c0-.302.078-.602.234-.899.156-.297.38-.565.672-.805a3.358 3.358 0 0 1 1.062-.578c.417-.145.88-.218 1.39-.218.616 0 1.157.104 1.626.312.474.208.844.524 1.11.945.27.417.405.94.405 1.57v3.938c0 .281.024.581.07.899.053.317.128.59.227.82V16h-1.507a2.698 2.698 0 0 1-.172-.664 5.35 5.35 0 0 1-.063-.781Zm.25-3.68.016 1.016h-1.461c-.412 0-.779.034-1.102.101a2.52 2.52 0 0 0-.812.29c-.219.13-.386.293-.5.491-.115.193-.172.42-.172.68 0 .266.06.508.18.727.12.218.3.393.539.523.244.125.544.188.898.188.443 0 .834-.094 1.172-.282a2.44 2.44 0 0 0 .805-.687c.203-.271.312-.534.328-.79l.617.696a2.098 2.098 0 0 1-.297.727 3.5 3.5 0 0 1-1.601 1.367 3.106 3.106 0 0 1-1.235.234c-.573 0-1.075-.112-1.508-.336a2.578 2.578 0 0 1-1-.898 2.378 2.378 0 0 1-.351-1.274c0-.453.088-.851.265-1.195.178-.349.433-.638.766-.867a3.638 3.638 0 0 1 1.203-.531c.469-.12.992-.18 1.57-.18h1.68Zm8.328 3.203 2.875-6.531h1.39L-7.68 16h-1l-3.75-8.453h1.39l2.86 6.531Zm-3.28-6.531V16h-1.446V7.547h1.445ZM-4.946 16V7.547h1.453V16h-1.453Z"/><path d="M-92.11 13.39h-1v3.423l1.843-2.884-.842-.538Zm5.602-8.765v-1h-.547l-.295.462.842.538Zm1.508 0h1v-1h-1v1ZM-85 16v1h1v-1h-1Zm-1.508 0h-1v1h1v-1Zm0-8.773h1V3.802l-1.843 2.886.843.539ZM-92.109 16v1h.548l.295-.462-.843-.538Zm-1.5 0h-1v1h1v-1Zm0-11.375v-1h-1v1h1Zm1.5 0h1v-1h-1v1Zm.842 9.304 5.602-8.766-1.685-1.076-5.602 8.765 1.685 1.077Zm4.76-8.304H-85v-2h-1.508v2Zm.507-1V16h2V4.625h-2ZM-85 15h-1.508v2H-85v-2Zm-.508 1V7.227h-2V16h2Zm-1.843-9.312-5.601 8.774 1.686 1.076 5.601-8.773-1.686-1.077ZM-92.109 15h-1.5v2h1.5v-2Zm-.5 1V4.625h-2V16h2Zm-1-10.375h1.5v-2h-1.5v2Zm.5-1v8.766h2V4.625h-2Zm16.367 6.586h1v-1h-1v1Zm0 1.172v1h1v-1h-1Zm-4.469 0h-1v1h1v-1Zm0-1.172v-1h-1v1h1Zm.305-3.664h1v-1h-1v1Zm0 8.453v1h1v-1h-1Zm-1.446 0h-1v1h1v-1Zm0-8.453v-1h-1v1h1Zm6.782 0h1v-1h-1v1Zm0 8.453v1h1v-1h-1Zm-1.453 0h-1v1h1v-1Zm0-8.453v-1h-1v1h1Zm-.72 3.664v1.172h2V11.21h-2Zm1 .172h-4.468v2h4.469v-2Zm-3.468 1V11.21h-2v1.172h2Zm-1-.172h4.469v-2h-4.469v2Zm-.695-4.664V16h2V7.547h-2Zm1 7.453h-1.446v2h1.446v-2Zm-.446 1V7.547h-2V16h2Zm-1-7.453h1.446v-2h-1.446v2Zm5.782-1V16h2V7.547h-2Zm1 7.453h-1.453v2h1.453v-2Zm-.453 1V7.547h-2V16h2Zm-1-7.453h1.453v-2h-1.453v2Zm7.75 3.734v1h.338l.269-.205-.607-.795Zm-2.774 0-1 .014.013.986h.987v-1Zm-.016-1.156v-1h-1.013l.014 1.014 1-.014Zm3.383-.133-.281-.96-.005.002.286.958Zm.774-1.586-.883.47.01.019.01.017.863-.506Zm-.383-.383-.518.856.01.005.009.006.499-.867Zm-.64-.226-.205.979.012.002.012.002.18-.983Zm-2.735-.078v-1h-1v1h1Zm0 7.281v1h1v-1h-1Zm-1.445 0h-1v1h1v-1Zm0-8.453v-1h-1v1h1Zm4.742.14-.215.977h.003l.212-.976Zm1.101.43-.537.843.008.006.008.005.521-.854Zm-.421 3.524.345.938.007-.003.008-.003-.36-.932Zm-1.024.21-.08-.996-.294.024-.233.178.607.795ZM-72.57 16l-.852-.523-.934 1.523h1.787v-1Zm.72-1.172v-1h-.56l-.293.477.852.523Zm3.578-.148.349.937.008-.003.008-.003-.365-.931Zm.593-.438-.818-.575-.003.005.821.57Zm0-1.367-.828.56.008.013.01.012.81-.585Zm-.593-.438-.365.931.007.004.008.003.35-.938Zm-3.196-.156-1-.013-.013 1.013h1.013v-1Zm.016-1.156v-1h-.987l-.013.986 1 .014Zm2.742 0 .641-.767-.278-.233h-.363v1Zm.523.438-.64.767.244.204.318.025.079-.996Zm1.18.343.513-.859-.513.86Zm.735.735-.872.49.003.006.869-.496Zm.023 2-.894-.448-.007.013.901.435Zm-.64.757.575.818.01-.007-.586-.81Zm-1.024.454.24.97.011-.003-.251-.967Zm-1.36-4.57h-2.773v2h2.774v-2Zm-1.773.986-.016-1.157-2 .027.016 1.157 2-.027Zm-1.016-.143h2.266v-2h-2.266v2Zm2.266 0c.506 0 .982-.049 1.403-.175l-.572-1.916c-.172.051-.44.091-.83.091v2Zm1.399-.173c.424-.125.844-.34 1.159-.71l-1.522-1.297c.013-.015-.02.035-.2.088l.563 1.919Zm1.159-.71c.324-.38.466-.836.466-1.305h-2a.202.202 0 0 1-.002.032v.002a.083.083 0 0 1 .014-.026l1.522 1.298Zm.466-1.305c0-.352-.079-.709-.27-1.036l-1.726 1.011a.094.094 0 0 1-.006-.012l-.002-.005s.004.014.004.043h2Zm-.25-1.001a1.965 1.965 0 0 0-.767-.78l-.998 1.734c.017.01.02.015.016.01a.113.113 0 0 1-.017-.024l1.765-.94Zm-.748-.768a2.88 2.88 0 0 0-.978-.355l-.361 1.967a.92.92 0 0 1 .303.099l1.036-1.71Zm-.955-.35c-.334-.07-.7-.1-1.087-.1v2c.291 0 .514.023.68.058l.407-1.958Zm-1.087-.1h-1.851v2h1.852v-2Zm-2.851 1V16h2V8.719h-2Zm1 6.282h-1.445v2h1.445v-2Zm-.445 1V7.547h-2V16h2Zm-1-7.453h3.296v-2h-3.296v2Zm3.296 0c.48 0 .889.042 1.231.117l.43-1.953a7.759 7.759 0 0 0-1.66-.164v2Zm1.234.118c.343.074.594.18.776.295l1.075-1.686a4.35 4.35 0 0 0-1.427-.564l-.424 1.955Zm.792.306a.938.938 0 0 1 .35.35l1.75-.97a2.934 2.934 0 0 0-1.058-1.087l-1.041 1.707Zm.35.35c.065.117.117.288.117.546h2c0-.533-.11-1.05-.368-1.515l-1.75.968Zm.117.546a.736.736 0 0 1-.067.313l1.82.828c.165-.361.247-.745.247-1.14h-2Zm-.067.313a.787.787 0 0 1-.208.27l1.315 1.507c.303-.264.546-.581.714-.95l-1.82-.827Zm-.208.27a1.506 1.506 0 0 1-.453.258l.72 1.865c.387-.149.742-.35 1.048-.616l-1.315-1.508Zm-.438.252a2.873 2.873 0 0 1-.759.153l.162 1.993c.457-.037.89-.122 1.288-.269l-.691-1.877Zm-1.285.355-.563.43 1.215 1.589.562-.43-1.214-1.59Zm.045 3.943h-3.297v2h3.297v-2Zm-2.445 1.523.719-1.172-1.705-1.046-.719 1.172 1.705 1.046Zm-.134-.695h2.579v-2h-2.579v2Zm2.579 0c.474 0 .935-.057 1.349-.211l-.698-1.874c-.119.044-.324.085-.651.085v2Zm1.365-.217c.404-.159.781-.412 1.05-.798l-1.643-1.141c.008-.012-.01.027-.137.077l.73 1.862Zm1.046-.794c.269-.382.385-.818.385-1.262h-2c0 .087-.019.109-.02.112l1.635 1.15Zm.385-1.262c0-.444-.116-.883-.392-1.265l-1.621 1.17.004.012c.003.01.01.035.01.083h2Zm-.374-1.24c-.27-.4-.656-.66-1.073-.815l-.698 1.875a.43.43 0 0 1 .103.051l.01.009 1.658-1.12Zm-1.057-.808c-.42-.165-.886-.226-1.365-.226v2c.322 0 .522.043.635.087l.73-1.861Zm-1.365-.226h-2.196v2h2.196v-2Zm-1.196 1.014.016-1.156-2-.027-.016 1.156 2 .027Zm-.984-.17h2.742v-2h-2.742v2Zm2.1-.233.524.438 1.283-1.535-.524-.437-1.282 1.534Zm1.087.667c.346.028.583.109.746.206l1.025-1.718c-.483-.288-1.033-.436-1.614-.481l-.157 1.993Zm.746.206a.989.989 0 0 1 .375.365l1.743-.979a2.984 2.984 0 0 0-1.093-1.104l-1.025 1.718Zm.378.372a.888.888 0 0 1 .119.457h2c0-.514-.127-1.003-.382-1.45l-1.737.993Zm.119.457c0 .267-.05.458-.121.6l1.788.894c.232-.463.333-.97.333-1.494h-2Zm-.128.612a.994.994 0 0 1-.325.382l1.17 1.621c.412-.297.736-.677.957-1.134l-1.802-.87Zm-.315.375a2.139 2.139 0 0 1-.7.303l.503 1.935c.494-.128.95-.323 1.348-.603l-1.151-1.635Zm-.688.3c-.307.076-.678.119-1.12.119v2c.57 0 1.105-.055 1.6-.178l-.48-1.941Zm5.974.978-.394.92.013.005.381-.925Zm-1.226-.851-.733.68.005.006.728-.686Zm-.782-1.297-.939.342.94-.342Zm.032-3.805.935.354.001-.003-.936-.35Zm.828-1.375-.732-.681.732.681Zm4.125-.828-.43.903.004.002.426-.905Zm1.086.875-.8.6.004.005.796-.605Zm.625 1.313-.966.258v.003l.966-.261Zm.203 2.289v1h1v-1h-1Zm-6.313 0h-1v1h1v-1Zm0-1.18v-1h-1v1h1Zm4.868 0v1h1v-1h-1Zm0-.11h1v-.027l-.002-.028-.998.056Zm-.235-1.093-.938.345.004.012.934-.357Zm-2.703-1.008.44.898.007-.003.007-.004-.454-.89Zm-1.172 4.414-.955.295.002.009.003.008.95-.312Zm.492.922-.779.627.008.009.771-.636Zm.79.625-.442.898.006.002.435-.9Zm3.289-.922.622-.783-.8-.635-.618.812.796.606Zm.875.695.834.552.505-.765-.717-.57-.622.783Zm-1.735 1.399-.355-.935-.004.002.36.933Zm-1.445-.766c-.475 0-.877-.08-1.22-.22l-.763 1.848a5.154 5.154 0 0 0 1.983.372v-2Zm-1.208-.216a2.631 2.631 0 0 1-.893-.618l-1.455 1.372c.44.467.964.829 1.56 1.085l.788-1.839Zm-.887-.613a2.788 2.788 0 0 1-.575-.959l-1.879.685c.225.617.552 1.166.988 1.635l1.465-1.36Zm-.575-.959a3.76 3.76 0 0 1-.213-1.298h-2c0 .697.107 1.362.334 1.983l1.879-.685Zm-.213-1.298v-.328h-2v.328h2Zm0-.328c0-.59.087-1.078.24-1.482l-1.87-.708c-.254.67-.37 1.405-.37 2.19h2Zm.241-1.485c.163-.435.375-.777.624-1.045L-64.06 7.85a5.106 5.106 0 0 0-1.033 1.705l1.873.702Zm.624-1.045a2.55 2.55 0 0 1 .854-.615l-.798-1.834a4.547 4.547 0 0 0-1.52 1.087l1.464 1.362Zm.854-.615c.32-.14.642-.206.976-.206v-2a4.41 4.41 0 0 0-1.774.372l.798 1.834Zm.976-.206c.492 0 .859.084 1.133.215l.86-1.806c-.6-.286-1.275-.41-1.993-.41v2Zm1.137.217c.302.142.533.332.712.57l1.6-1.2a3.849 3.849 0 0 0-1.46-1.18l-.852 1.81Zm.716.575c.193.255.349.571.455.966l1.932-.517a4.74 4.74 0 0 0-.795-1.66l-1.592 1.211Zm.456.969c.109.404.168.861.168 1.38h2a7.26 7.26 0 0 0-.238-1.903l-1.93.523Zm.168 1.38v.648h2v-.649h-2Zm1-.352h-6.313v2h6.313v-2Zm-5.313 1V11h-2v1.18h2Zm-1-.18h4.868v-2h-4.868v2Zm5.868-1v-.11h-2V11h2Zm-.002-.165a4.604 4.604 0 0 0-.299-1.395l-1.868.714c.099.258.155.521.17.792l1.997-.11Zm-.294-1.383a2.966 2.966 0 0 0-.94-1.311l-1.248 1.562c.14.112.242.25.31.439l1.878-.69Zm-.94-1.311c-.516-.414-1.153-.563-1.796-.563v2c.347 0 .491.08.548.125l1.249-1.562Zm-1.796-.563c-.476 0-.935.104-1.36.32l.908 1.782a.968.968 0 0 1 .452-.102v-2Zm-1.346.313a2.929 2.929 0 0 0-1.078.917l1.615 1.18a.933.933 0 0 1 .344-.301l-.881-1.796Zm-1.078.917c-.282.386-.482.83-.617 1.313l1.926.54c.084-.3.191-.516.306-.673l-1.615-1.18Zm-.617 1.313a6.022 6.022 0 0 0-.2 1.621h2c0-.441.047-.798.126-1.082l-1.926-.539Zm-.2 1.621v.328h2v-.328h-2Zm0 .328c0 .493.067.971.208 1.428l1.91-.59a2.822 2.822 0 0 1-.119-.838h-2Zm.213 1.445c.15.454.368.87.663 1.237l1.559-1.254a1.9 1.9 0 0 1-.322-.607l-1.9.624Zm.67 1.246c.31.375.685.672 1.12.886l.883-1.794a1.36 1.36 0 0 1-.459-.364l-1.544 1.272Zm1.126.89c.466.225.973.326 1.498.326v-2c-.266 0-.468-.05-.627-.127l-.87 1.8Zm1.498.326c.646 0 1.263-.133 1.804-.451l-1.014-1.724c-.167.099-.415.175-.79.175v2Zm1.804-.451a4.21 4.21 0 0 0 1.218-1.092l-1.591-1.212a2.213 2.213 0 0 1-.641.58l1.014 1.724Zm-.2-.915.875.695 1.245-1.565-.875-.696-1.245 1.566Zm.663-.639c-.128.195-.3.393-.525.593l1.329 1.495c.337-.3.629-.628.865-.985l-1.669-1.103Zm-.525.593a2.326 2.326 0 0 1-.73.422l.71 1.87a4.314 4.314 0 0 0 1.349-.797l-1.33-1.495Zm-.734.424c-.264.101-.619.167-1.086.167v2c.647 0 1.256-.09 1.804-.3l-.718-1.868Zm8.945-.81.794.609.006-.008-.8-.6Zm.32-.85v-1h-.92l-.076.917.996.082Zm1.375 0 1 .051.054-1.052h-1.054v1Zm-.507 1.398-.81-.586-.002.002.812.584Zm-1.211 1.039.462.887.007-.004-.47-.883Zm-3.313.054-.43.903.003.002.427-.905Zm-1.172-.922-.786.619.005.006.781-.625Zm-.695-1.343-.959.284.004.011.955-.295Zm0-3.555-.956-.293-.002.007.958.286Zm.695-1.352-.78-.624-.006.006.786.618Zm1.172-.921-.427-.905-.004.002.431.903Zm3.399.07-.48.877.007.004.473-.881Zm1.164 1.094-.855.518.007.012.848-.53Zm.468 1.562v1h1.046l-.047-1.044-.999.044Zm-1.375 0-.997.075.07.925h.927v-1Zm-.296-.945-.86.51.006.011.854-.521Zm-.688-.672-.514.857.009.006.009.005.496-.868Zm-2.125.008.501.865.005-.003-.506-.862Zm-.71.703-.86-.512-.002.004.861.508Zm-.376.976-.977-.212-.002.01.98.202Zm.367 3.485-.861.508.006.01.855-.518Zm.711.703-.512.859.009.005.009.005.494-.87Zm1.125 1.258c.485 0 .952-.1 1.388-.31l-.869-1.802a1.166 1.166 0 0 1-.519.112v2Zm1.388-.31c.425-.206.79-.496 1.078-.871l-1.588-1.216a.963.963 0 0 1-.359.285l.869 1.802Zm1.084-.88a2.61 2.61 0 0 0 .517-1.37l-1.993-.163a.61.61 0 0 1-.124.334l1.6 1.2Zm-.48-.45h1.375v-2h-1.375v2Zm.377-1.053a1.58 1.58 0 0 1-.32.865l1.621 1.171c.418-.577.66-1.227.696-1.932l-1.997-.104Zm-.321.867c-.211.293-.494.54-.868.74l.938 1.766a4.465 4.465 0 0 0 1.553-1.338l-1.623-1.168Zm-.861.736a2.516 2.516 0 0 1-1.187.277v2c.75 0 1.46-.164 2.11-.503l-.923-1.774Zm-1.187.277c-.518 0-.922-.09-1.237-.24l-.854 1.808c.633.3 1.339.432 2.091.432v-2Zm-1.233-.238a2.297 2.297 0 0 1-.822-.644l-1.562 1.25c.41.512.923.912 1.522 1.199l.862-1.805Zm-.817-.638a3.118 3.118 0 0 1-.526-1.02l-1.91.59a5.12 5.12 0 0 0 .864 1.667l1.572-1.237Zm-.522-1.01a4.672 4.672 0 0 1-.186-1.332h-2c0 .657.088 1.292.268 1.9l1.918-.567Zm-.186-1.332v-.329h-2v.329h2Zm0-.329c0-.478.064-.917.185-1.323l-1.916-.572a6.589 6.589 0 0 0-.269 1.895h2Zm.183-1.316c.123-.401.3-.74.525-1.026L-55.84 8.03a5.104 5.104 0 0 0-.865 1.677l1.912.586Zm.52-1.02c.215-.268.484-.483.822-.644l-.862-1.805c-.6.287-1.111.687-1.522 1.2l1.562 1.25Zm.818-.642c.316-.15.719-.24 1.237-.24v-2c-.752 0-1.458.132-2.091.431l.854 1.809Zm1.237-.24c.523 0 .93.106 1.255.283l.96-1.754c-.666-.365-1.415-.53-2.215-.53v2Zm1.262.287c.343.184.597.426.782.731l1.71-1.037a3.981 3.981 0 0 0-1.546-1.456l-.946 1.762Zm.789.743c.188.3.298.651.317 1.077l1.998-.09a4.16 4.16 0 0 0-.62-2.047l-1.695 1.06Zm1.316.032h-1.375v2h1.375v-2Zm-.377.926a3.081 3.081 0 0 0-.441-1.393l-1.707 1.043c.084.138.138.298.153.498l1.995-.148Zm-.434-1.381a2.851 2.851 0 0 0-1.052-1.03l-.992 1.736a.852.852 0 0 1 .323.314l1.72-1.02Zm-1.033-1.02a2.919 2.919 0 0 0-1.523-.4v2a.93.93 0 0 1 .494.115l1.029-1.715Zm-1.523-.4c-.574 0-1.132.115-1.623.403l1.012 1.725c.113-.066.3-.128.611-.128v-2Zm-1.618.4a2.958 2.958 0 0 0-1.069 1.057l1.718 1.024a.959.959 0 0 1 .353-.35l-1.002-1.73Zm-1.071 1.061a4.28 4.28 0 0 0-.491 1.272l1.954.425c.058-.264.146-.489.26-.681l-1.723-1.016Zm-.493 1.283a6.37 6.37 0 0 0-.13 1.287h2c0-.303.03-.598.089-.884l-1.96-.403Zm-.13 1.287v.329h2v-.329h-2Zm0 .329c0 .435.043.867.13 1.292l1.96-.398a4.481 4.481 0 0 1-.09-.895h-2Zm.13 1.292c.092.46.252.89.485 1.285l1.723-1.015a2.133 2.133 0 0 1-.249-.668l-1.96.398Zm.492 1.297c.262.433.618.783 1.053 1.043l1.025-1.718a1.042 1.042 0 0 1-.369-.363l-1.71 1.038Zm1.07 1.053c.491.279 1.048.389 1.62.389v-2c-.323 0-.516-.062-.63-.127l-.99 1.738Zm10.058-8.033h1v-1h-1v1Zm0 8.453v1h1v-1h-1Zm-1.453 0h-1v1h1v-1Zm0-8.453v-1h-1v1h1Zm4.289 0h1v-1h-1v1Zm0 1.172v1h1v-1h-1Zm-7.07 0h-1v1h1v-1Zm0-1.172v-1h-1v1h1Zm3.234 0V16h2V7.547h-2Zm1 7.453h-1.453v2h1.453v-2Zm-.453 1V7.547h-2V16h2Zm-1-7.453h1.453v-2h-1.453v2Zm3.289-1v1.172h2V7.547h-2Zm1 .172h-7.07v2h7.07v-2Zm-6.07 1V7.547h-2v1.172h2Zm-1-.172h7.07v-2h-7.07v2Zm8.046 1.445.947.322.001-.003-.948-.319Zm.766-1.367.756.654.005-.005-.761-.649Zm1.21-.906.412.912.008-.004-.42-.908Zm3.196 0-.419.908.012.005.407-.913Zm1.219.906-.76.65.004.005.005.005.75-.66Zm.773 1.367-.947.32v.002l.947-.322Zm0 3.57-.947-.321.947.322Zm-.773 1.368-.756-.655.756.655Zm-1.211.906.415.91.004-.002-.42-.908Zm-3.195 0-.42.908.009.004.41-.912Zm-1.22-.906-.76.649.005.005.005.006.75-.66Zm.563-1.867-.967.255.001.003.966-.258Zm.446.984-.823.568.007.01.816-.578Zm.758.68-.484.875.012.006.471-.881Zm2.093 0 .478.878.005-.003-.483-.875Zm1.196-1.665-.964-.267-.002.009.966.258Zm0-2.554-.967.255.002.008.002.008.963-.271Zm-.454-.992-.827.561.006.009.006.008.815-.578Zm-.75-.688-.49.872.007.004.483-.876Zm-2.093 0-.483-.875-.007.003.49.872Zm-.75.688-.82-.572-.003.003.823.569Zm-.446.992.966.258.001-.003-.967-.255Zm-.593 1.36v-.18h-2v.18h2Zm0-.18c0-.512.074-.967.212-1.374l-1.894-.644a6.233 6.233 0 0 0-.318 2.018h2Zm.213-1.377c.14-.414.333-.753.574-1.032l-1.512-1.308a5.027 5.027 0 0 0-.957 1.702l1.895.638Zm.579-1.037c.236-.277.52-.49.86-.644l-.821-1.823a4.416 4.416 0 0 0-1.56 1.169l1.52 1.298Zm.869-.647c.327-.151.712-.236 1.175-.236v-2c-.715 0-1.392.133-2.013.42l.838 1.816Zm1.175-.236c.469 0 .856.085 1.182.236l.838-1.816a4.776 4.776 0 0 0-2.02-.42v2Zm1.194.241c.346.154.63.367.865.642l1.522-1.298a4.399 4.399 0 0 0-1.573-1.17l-.814 1.826Zm.875.653c.244.278.438.615.577 1.026l1.895-.638a4.958 4.958 0 0 0-.97-1.708l-1.502 1.32Zm.578 1.03c.138.406.212.86.212 1.373h2c0-.708-.103-1.383-.319-2.018l-1.893.644Zm.212 1.373v.18h2v-.18h-2Zm0 .18c0 .51-.074.966-.212 1.373l1.893.643c.216-.635.319-1.31.319-2.017h-2Zm-.212 1.373a3.058 3.058 0 0 1-.583 1.034l1.512 1.31a5.058 5.058 0 0 0 .964-1.7l-1.893-.644Zm-.584 1.034a2.543 2.543 0 0 1-.873.653l.838 1.816c.6-.277 1.12-.664 1.548-1.16l-1.512-1.309Zm-.869.65c-.32.147-.706.231-1.179.231v2c.715 0 1.391-.129 2.009-.41l-.83-1.82Zm-1.179.231c-.472 0-.863-.084-1.19-.232l-.822 1.824c.62.28 1.297.408 2.012.408v-2Zm-1.182-.228a2.624 2.624 0 0 1-.887-.658l-1.502 1.32c.432.492.952.878 1.55 1.154l.839-1.816Zm-.877-.647a3.131 3.131 0 0 1-.58-1.04l-1.894.643c.215.633.531 1.201.952 1.695l1.522-1.298Zm-.58-1.04a4.238 4.238 0 0 1-.212-1.374h-2c0 .707.103 1.382.319 2.017l1.893-.643Zm-.767-1.553v.18h2v-.18h-2Zm0 .18c0 .5.059.984.181 1.45l1.934-.51a3.667 3.667 0 0 1-.115-.94h-2Zm.182 1.453c.126.47.32.905.589 1.294l1.645-1.137a2.147 2.147 0 0 1-.302-.674l-1.932.517Zm.596 1.304c.289.407.654.736 1.09.977l.967-1.751a1.255 1.255 0 0 1-.426-.383l-1.631 1.157Zm1.102.983c.47.252.989.36 1.526.36v-2c-.265 0-.449-.052-.583-.123l-.943 1.763Zm1.526.36c.534 0 1.05-.11 1.517-.363l-.956-1.757a1.15 1.15 0 0 1-.56.12v2Zm1.522-.366a3.181 3.181 0 0 0 1.09-.987l-1.645-1.137c-.111.16-.245.282-.41.373l.965 1.751Zm1.09-.987c.27-.39.463-.824.589-1.294l-1.932-.517a2.15 2.15 0 0 1-.303.674l1.646 1.137Zm.586-1.285c.13-.469.193-.958.193-1.463h-2c0 .34-.042.647-.12.928l1.927.535Zm.193-1.463v-.18h-2v.18h2Zm0-.18c0-.5-.063-.985-.194-1.45l-1.925.542c.077.274.119.576.119.909h2Zm-.19-1.434a4.038 4.038 0 0 0-.604-1.316l-1.631 1.157c.127.179.23.398.302.669l1.934-.51Zm-.592-1.299a3.153 3.153 0 0 0-1.094-1.001l-.967 1.75c.161.09.294.21.406.374l1.655-1.123Zm-1.088-.998a3.1 3.1 0 0 0-1.536-.378v2c.26 0 .434.053.557.122l.979-1.744Zm-1.536-.378c-.54 0-1.06.115-1.53.375l.966 1.75c.133-.073.312-.125.564-.125v-2Zm-1.537.378a3.247 3.247 0 0 0-1.08.988l1.64 1.143c.121-.173.26-.297.42-.387l-.98-1.744Zm-1.083.991c-.27.392-.464.831-.59 1.306l1.934.51c.073-.276.176-.498.301-.679l-1.645-1.137Zm-.589 1.302a5.542 5.542 0 0 0-.182 1.438h2c0-.336.04-.642.114-.92l-1.932-.518Zm10.326-1.077h1v-.039l-.003-.038-.997.077Zm0 10.078v1h1v-1h-1Zm-1.453 0h-1v1h1v-1Zm0-11.703v-1h-1v1h1Zm1.328 0 .997-.077-.071-.923h-.926v1Zm5.601 6.031.963.27.001-.003-.964-.267Zm-.64 1.36-.808-.59-.005.007.813.582Zm-4.89.18-.764.645.763-.646Zm-.688-1.22-.944.332.003.01.94-.342Zm-.344-1.601h-1v.052l.005.053.995-.105Zm0-.875-.995-.1-.005.05v.05h1Zm1.031-2.945-.777-.63-.002.002.78.628Zm1.04-.805.409.912.01-.004-.42-.908Zm2.82.031-.452.892.009.005.442-.897Zm1.671 2.242-.966.256.003.011.963-.267Zm-1.367.57-.973.23v.004l.973-.233Zm-.414-.984-.844.537.006.01.006.008.832-.555Zm-.703-.672-.503.865.012.007.49-.872Zm-1.977-.062-.419-.908-.006.003.425.905Zm-.68.508.744.669.008-.01-.751-.66Zm-.46.718-.915-.404-.003.008.918.396Zm-.258.829-.98-.197-.02.098v.099h1Zm0 2.023h-1v.14l.038.135.962-.275Zm.437 1.031-.864.502.003.007.861-.509Zm.75.774-.535.845.01.006.525-.851Zm2.188.047.498.867.005-.003-.503-.864Zm.703-.68-.837-.548-.007.011.844.537Zm.414-.985.973.233v-.003l-.973-.23Zm-5.11-3.89V19.25h2V9.172h-2Zm1 9.078h-1.452v2h1.453v-2Zm-.452 1V7.547h-2V19.25h2Zm-1-10.703h1.328v-2h-1.328v2Zm.33-.923.126 1.625 1.994-.154-.125-1.625-1.994.154Zm5.818 4.08v.163h2v-.164h-2Zm0 .163a5.39 5.39 0 0 1-.182 1.444l1.927.534a7.386 7.386 0 0 0 .255-1.978h-2Zm-.182 1.441a3.208 3.208 0 0 1-.485 1.04l1.616 1.179c.36-.494.622-1.059.795-1.68l-1.926-.538Zm-.49 1.047a1.915 1.915 0 0 1-.676.596l.93 1.77a3.915 3.915 0 0 0 1.372-1.201l-1.626-1.165Zm-.676.596c-.243.127-.545.205-.933.205v2c.664 0 1.294-.136 1.864-.435l-.931-1.77Zm-.933.205c-.427 0-.762-.07-1.027-.184l-.79 1.837c.558.24 1.17.347 1.817.347v-2Zm-1.027-.184a1.805 1.805 0 0 1-.679-.5l-1.526 1.291c.387.458.863.809 1.415 1.046l.79-1.837Zm-.679-.5a2.954 2.954 0 0 1-.51-.915l-1.88.682c.206.57.491 1.084.864 1.524l1.526-1.292Zm-.507-.905a6.06 6.06 0 0 1-.293-1.375l-1.989.21a8.05 8.05 0 0 0 .395 1.828l1.887-.663Zm-.287-1.27v-.875h-2v.875h2Zm-.005-.776c.056-.562.16-1.043.301-1.45l-1.89-.657a8.348 8.348 0 0 0-.401 1.908l1.99.2Zm.301-1.45c.14-.405.316-.721.514-.967l-1.558-1.255a5.18 5.18 0 0 0-.845 1.565l1.889.656Zm.513-.966a1.79 1.79 0 0 1 .67-.52l-.818-1.825a3.79 3.79 0 0 0-1.407 1.088l1.555 1.257Zm.68-.525c.253-.117.574-.19.987-.19v-2c-.649 0-1.265.115-1.825.374l.838 1.816Zm.987-.19c.399 0 .711.078.963.205l.903-1.784c-.571-.29-1.201-.42-1.866-.42v2Zm.972.21c.264.13.488.317.678.573l1.607-1.19a3.845 3.845 0 0 0-1.4-1.177l-.885 1.794Zm.678.573c.194.263.356.6.47 1.028l1.933-.512a4.986 4.986 0 0 0-.796-1.706l-1.607 1.19Zm.473 1.04c.117.424.182.919.182 1.49h2c0-.72-.081-1.398-.255-2.025l-1.927.534Zm.729 1.654v-.164h-2v.164h2Zm0-.164c0-.492-.052-.966-.16-1.42l-1.945.466c.068.285.105.602.105.954h2Zm-.16-1.417a3.998 3.998 0 0 0-.555-1.31l-1.664 1.11c.113.17.208.384.273.66l1.946-.46Zm-.543-1.292a2.973 2.973 0 0 0-1.056-1.006l-.982 1.743a.973.973 0 0 1 .35.337l1.688-1.074Zm-1.044-.999c-.467-.271-.988-.386-1.526-.386v2c.253 0 .414.053.52.115l1.006-1.729Zm-1.526-.386a3.25 3.25 0 0 0-1.373.28l.838 1.816a1.27 1.27 0 0 1 .535-.096v-2Zm-1.38.283a3.06 3.06 0 0 0-1.005.753l1.503 1.32c.094-.107.209-.195.354-.263l-.851-1.81Zm-.997.744a3.694 3.694 0 0 0-.632.983l1.83.809c.079-.18.176-.329.289-.454l-1.487-1.338Zm-.636.991c-.142.33-.249.674-.32 1.028l1.962.393c.043-.219.108-.428.195-.629l-1.837-.792Zm-.34 1.225v2.023h2v-2.023h-2Zm.04 2.298c.126.443.304.863.534 1.258l1.73-1.004a3.517 3.517 0 0 1-.341-.804l-1.924.55Zm.537 1.264c.268.455.63.828 1.076 1.11l1.07-1.69a1.268 1.268 0 0 1-.423-.436l-1.723 1.017ZM-29 15.532c.51.314 1.098.438 1.704.438v-2c-.341 0-.54-.07-.655-.14l-1.05 1.702Zm1.704.438c.53 0 1.045-.11 1.506-.375l-.996-1.735c-.101.059-.258.11-.51.11v2Zm1.51-.378a3.04 3.04 0 0 0 1.045-1.007l-1.688-1.074a1.041 1.041 0 0 1-.362.352l1.006 1.729Zm1.038-.996c.257-.393.437-.83.55-1.3l-1.945-.465c-.065.27-.16.49-.279.67l1.674 1.095Zm.55-1.303c.108-.457.16-.933.16-1.425h-2c0 .352-.037.673-.106.966l1.946.46Zm7.238-3.956-.887.462.006.011.006.011.875-.484Zm-2.539-.594-.413-.91-.006.002.419.908Zm-.64.492-.793-.61-.005.007-.005.007.802.596Zm-.227.657v1h1v-1h-1Zm-1.445 0h-1v1h1v-1Zm.906-1.704.634.773.002-.001-.636-.771Zm1.062-.578.324.947.007-.003-.33-.944Zm3.016.094-.406.914.004.002.402-.916Zm1.11.945-.847.533.004.006.004.006.838-.545Zm.476 6.407-.99.146.002.008.001.008.987-.162Zm.226.82h1v-.207l-.082-.19-.918.397Zm0 .125v1h1v-1h-1Zm-1.507 0-.917.4.263.6h.654v-1Zm-.172-.664-.99.146v.003l.99-.15Zm.187-4.461 1-.015-.015-.985h-.985v1Zm.016 1.016v1h1.015l-.015-1.016-1 .016Zm-2.563.101.19.982.008-.002.008-.001-.206-.979Zm-1.312.781.86.511.005-.01-.865-.5Zm.547 1.93-.478.879.011.006.012.006.455-.89Zm2.875-.781-.8-.6-.008.01.808.59Zm.328-.79.748-.663-1.6-1.801-.146 2.404.998.06Zm.617.696.986.165.079-.472-.317-.357-.748.664Zm-.945 1.492.67.743-.67-.743Zm-.953.602.393.919.007-.003-.4-.916Zm-2.743-.102-.464.886.004.002.46-.888Zm-1-.898-.85.525.003.007.005.006.842-.538Zm-.086-2.469.89.458.002-.005-.892-.453Zm.766-.867.567.824.008-.006-.575-.818Zm5.203 2.969v-4.352h-2v4.352h2Zm0-4.352c0-.47-.096-.932-.328-1.351l-1.75.968c.04.07.078.187.078.383h2Zm-.316-1.329A2.33 2.33 0 0 0-17.1 7.867l-.909 1.782a.332.332 0 0 1 .161.149l1.774-.924ZM-17.1 7.867c-.444-.226-.938-.312-1.44-.312v2c.28 0 .443.049.531.094l.909-1.782Zm-1.44-.312c-.477 0-.943.082-1.373.276l.826 1.822a1.32 1.32 0 0 1 .548-.098v-2Zm-1.38.28a2.67 2.67 0 0 0-1.013.79l1.585 1.22a.683.683 0 0 1 .267-.195l-.838-1.816Zm-1.023.803a2.078 2.078 0 0 0-.424 1.253h2c0-.008 0-.01.002-.014a.181.181 0 0 1 .027-.046l-1.605-1.193Zm.576.253h-1.445v2h1.445v-2Zm-.445 1c0-.123.03-.264.119-.433l-1.77-.932a2.91 2.91 0 0 0-.35 1.365h2Zm.119-.433c.087-.165.22-.332.422-.498l-1.27-1.545a3.626 3.626 0 0 0-.922 1.111l1.77.932Zm.423-.499c.193-.159.437-.297.75-.403l-.647-1.893c-.51.175-.974.422-1.375.753l1.272 1.543Zm.757-.406a3.193 3.193 0 0 1 1.06-.162v-2c-.606 0-1.183.086-1.721.275l.66 1.887Zm1.06-.162c.502 0 .9.085 1.219.226l.812-1.828c-.62-.275-1.304-.398-2.031-.398v2Zm1.223.228c.298.13.51.316.665.562l1.693-1.065a3.434 3.434 0 0 0-1.554-1.328l-.805 1.83Zm.673.574c.14.216.244.537.244 1.026h2c0-.772-.166-1.498-.567-2.116l-1.677 1.09Zm.244 1.026v3.937h2V10.22h-2Zm0 3.937c0 .337.028.685.081 1.045l1.98-.292a5.176 5.176 0 0 1-.06-.753h-2Zm.084 1.06c.062.377.156.733.295 1.055l1.836-.792a2.534 2.534 0 0 1-.157-.586l-1.974.323Zm.213.659V16h2v-.125h-2Zm1-.875h-1.507v2h1.507v-2Zm-.591.6a1.78 1.78 0 0 1-.1-.413l-1.977.298c.049.322.123.638.244.916l1.833-.802Zm-.1-.41a4.357 4.357 0 0 1-.05-.635h-2c0 .296.025.606.073.928l1.978-.294Zm-1.8-4.3.015 1.016 2-.03-.016-1.016-2 .03Zm1.015 0h-1.461v2h1.46v-2Zm-1.461 0c-.464 0-.902.039-1.307.123l.41 1.958c.242-.05.538-.08.897-.08v-2Zm-1.292.12a3.51 3.51 0 0 0-1.134.412l1.023 1.718c.096-.056.25-.12.491-.166l-.38-1.964Zm-1.134.412a2.373 2.373 0 0 0-.854.85l1.731 1.002a.383.383 0 0 1 .146-.133l-1.023-1.719Zm-.848.84c-.22.371-.312.78-.312 1.191h2c0-.11.023-.154.031-.168l-1.719-1.023Zm-.312 1.191c0 .422.097.831.303 1.207l1.754-.96a.49.49 0 0 1-.057-.247h-2Zm.303 1.207c.22.403.546.709.938.922l.955-1.758a.314.314 0 0 1-.14-.125l-1.753.961Zm.96.934c.421.214.886.297 1.354.297v-2c-.24 0-.374-.043-.444-.079l-.91 1.782Zm1.354.297c.588 0 1.15-.126 1.657-.407l-.97-1.75c-.17.095-.389.157-.687.157v2Zm1.657-.407a3.437 3.437 0 0 0 1.127-.972l-1.615-1.18c-.1.137-.25.275-.482.403l.97 1.75Zm1.12-.962c.283-.378.495-.824.526-1.328l-1.996-.122c0 .006-.007.086-.13.25l1.6 1.2Zm-1.22-.725.617.695 1.496-1.328-.617-.695-1.496 1.328Zm.379-.133c-.01.053-.046.174-.165.371l1.709 1.04c.203-.335.364-.698.428-1.082l-1.972-.33Zm-.165.371c-.104.17-.254.352-.465.543l1.341 1.484c.33-.299.613-.627.833-.988l-1.71-1.039Zm-.464.543c-.176.159-.4.304-.684.427l.8 1.833a4.5 4.5 0 0 0 1.223-.775l-1.34-1.485Zm-.677.425a2.11 2.11 0 0 1-.84.153v2c.572 0 1.12-.098 1.628-.315l-.788-1.838Zm-.84.153c-.442 0-.782-.085-1.049-.224l-.92 1.776c.598.31 1.263.448 1.968.448v-2Zm-1.044-.221a1.58 1.58 0 0 1-.622-.552l-1.685 1.077c.34.534.81.948 1.378 1.246l.929-1.771Zm-.613-.538a1.38 1.38 0 0 1-.203-.749h-2c0 .645.164 1.253.5 1.799l1.703-1.05Zm-.203-.749c0-.32.062-.557.154-.737l-1.777-.916a3.57 3.57 0 0 0-.377 1.653h2Zm.157-.742c.099-.195.24-.358.44-.496l-1.133-1.648c-.466.32-.835.735-1.09 1.239l1.783.905Zm.45-.502c.217-.153.502-.285.875-.38l-.495-1.938a4.632 4.632 0 0 0-1.531.682l1.15 1.636Zm.875-.38a5.352 5.352 0 0 1 1.323-.149v-2c-.646 0-1.255.067-1.818.21l.495 1.939Zm1.323-.149h1.68v-2h-1.68v2Zm10.007 2.203-.916.401.914 2.087.918-2.085-.916-.403Zm2.875-6.531v-1h-.652l-.263.597.915.403Zm1.39 0 .914.407.627-1.407h-1.54v1ZM-7.68 16v1h.65l.264-.593L-7.68 16Zm-1 0-.914.405.264.595h.65v-1Zm-3.75-8.453v-1h-1.537l.623 1.405.914-.405Zm1.39 0 .917-.401-.262-.6h-.654v1Zm-.42 0h1v-1h-1v1Zm0 8.453v1h1v-1h-1Zm-1.446 0h-1v1h1v-1Zm0-8.453v-1h-1v1h1ZM-4.946 16h-1v1h1v-1Zm0-8.453v-1h-1v1h1Zm1.454 0h1v-1h-1v1Zm0 8.453v1h1v-1h-1Zm-3.772-1.519L-4.39 7.95l-1.83-.806-2.876 6.531 1.83.806Zm1.96-5.934h1.39v-2h-1.39v2Zm.476-1.407-3.765 8.453 1.827.814 3.765-8.453-1.827-.814ZM-7.68 15h-1v2h1v-2Zm-.086.595-3.75-8.454-1.828.811 3.75 8.453 1.828-.81Zm-4.664-7.048h1.39v-2h-1.39v2Zm.475-.6 2.86 6.532 1.831-.802-2.859-6.531-1.832.802Zm-.506-.4V16h2V7.547h-2Zm1 7.453h-1.445v2h1.445v-2Zm-.445 1V7.547h-2V16h2Zm-1-7.453h1.445v-2h-1.445v2ZM-3.946 16V7.547h-2V16h2Zm-1-7.453h1.454v-2h-1.453v2Zm.454-1V16h2V7.547h-2Zm1 7.453h-1.453v2h1.453v-2Z"/></g><path d="m5 8 5 5 5-5" stroke="#000" stroke-width="1.5" stroke-linejoin="round"/><g filter="url(#d)"><path fill="#fff" d="M-113 35h278v204h-278z"/></g></g><defs><clipPath id="a"><path fill="#fff" transform="translate(-493 -39)" d="M0 0h1440v6528H0z"/></clipPath><clipPath id="b"><path fill="#fff" transform="translate(-493 -39)" d="M0 0h1440v900H0z"/></clipPath><filter id="c" x="-97.609" y="4.625" width="98.117" height="22.625" filterUnits="userSpaceOnUse" color-interpolation-filters="sRGB"><feFlood flood-opacity="0" result="BackgroundImageFix"/><feColorMatrix in="SourceAlpha" values="0 0 0 0 0 0 0 0 0 0 0 0 0 0 0 0 0 0 127 0" result="hardAlpha"/><feOffset dy="4"/><feGaussianBlur stdDeviation="2"/><feComposite in2="hardAlpha" operator="out"/><feColorMatrix values="0 0 0 0 0 0 0 0 0 0 0 0 0 0 0 0 0 0 0.25 0"/><feBlend in2="BackgroundImageFix" result="effect1_dropShadow_1468_40921"/><feBlend in="SourceGraphic" in2="effect1_dropShadow_1468_40921" result="shape"/></filter><filter id="d" x="-137" y="17" width="326" height="252" filterUnits="userSpaceOnUse" color-interpolation-filters="sRGB"><feFlood flood-opacity="0" result="BackgroundImageFix"/><feColorMatrix in="SourceAlpha" values="0 0 0 0 0 0 0 0 0 0 0 0 0 0 0 0 0 0 127 0" result="hardAlpha"/><feOffset dy="6"/><feGaussianBlur stdDeviation="12"/><feColorMatrix values="0 0 0 0 0.380937 0 0 0 0 0.451016 0 0 0 0 0.575 0 0 0 0.12 0"/><feBlend in2="BackgroundImageFix" result="effect1_dropShadow_1468_40921"/><feBlend in="SourceGraphic" in2="effect1_dropShadow_1468_40921" result="shape"/></filter></defs></svg>