<?xml version="1.0" ?><svg enable-background="new 0 0 223.9691 204" id="sketch" version="1.1" viewBox="0 0 223.9691 204" xml:space="preserve" xmlns="http://www.w3.org/2000/svg" xmlns:xlink="http://www.w3.org/1999/xlink"><path d="M223.8522,64.8674c0.0229-0.1016,0.0608-0.1946,0.0757-0.2976c0.0647-0.4485,0.0537-0.9014-0.0364-1.3503  c-0.0212-0.1062-0.0684-0.2031-0.0981-0.3081c-0.0625-0.2185-0.1062-0.4407-0.2073-0.6497  c-0.0667-0.1382-0.1707-0.2468-0.2512-0.3748c-0.0422-0.0671-0.0479-0.1458-0.0945-0.2112l-30-42  c-0.4224-0.5906-0.9973-0.9719-1.6145-1.2537c-0.3977-0.9163-1.104-1.6826-2.0535-2.094l-37-16  C152.0705,0.1133,151.5314,0,150.9846,0h-78c-0.5469,0-1.0859,0.1133-1.5879,0.3281l-37,16  c-0.9492,0.4114-1.6553,1.1775-2.053,2.0933c-0.6174,0.2815-1.1929,0.6633-1.615,1.2544l-30,42  c-0.0466,0.0654-0.0522,0.144-0.0945,0.2112c-0.0806,0.1279-0.1846,0.2366-0.2512,0.3748c-0.1011,0.209-0.1448,0.4312-0.2073,0.6497  c-0.0298,0.105-0.0769,0.2019-0.0981,0.3081c-0.0901,0.449-0.1011,0.9019-0.0364,1.3503c0.0149,0.103,0.0527,0.196,0.0757,0.2976  c0.0789,0.3523,0.2041,0.6877,0.3777,1.011c0.0642,0.1199,0.1262,0.2332,0.2031,0.3469c0.0574,0.085,0.0896,0.1816,0.1541,0.2629  l108,136c0.0315,0.0393,0.0825,0.054,0.1152,0.092c0.342,0.3997,0.7439,0.7273,1.2058,0.9634  c0.0737,0.0376,0.1482,0.0596,0.2241,0.0925c0.4973,0.217,1.0276,0.3638,1.5876,0.3638s1.0903-0.1467,1.5876-0.3638  c0.0759-0.033,0.1504-0.0549,0.2241-0.0925c0.4619-0.2361,0.8638-0.5637,1.2058-0.9634c0.0327-0.0381,0.0837-0.0527,0.1152-0.092  l108-136c0.0645-0.0813,0.0967-0.178,0.1541-0.2629c0.0769-0.1138,0.1389-0.2271,0.2031-0.3469  C223.6481,65.5552,223.7734,65.2197,223.8522,64.8674z" fill="#535353"/><polygon fill="#D8D8D8" points="73.8127,8 150.1564,8 178.8322,20.3984 149.9729,36 73.9963,36 45.1369,20.3984 "/><polygon fill="#D8D8D8" points="62.9494,108 161.0197,108 111.9846,192.0625 "/><polygon fill="#FFFFFF" points="63.1076,100 77.1076,44 146.9797,44 163.2377,100 "/><path d="M11.2031,60.7764l25.5723-35.801l32.4563,17.5439L55.6311,96.9221L11.4201,60.8984  C11.3547,60.8452,11.2712,60.8252,11.2031,60.7764z" fill="#FFFFFF"/><path d="M52.0232,104.3035c0.0454,0.593,0.196,1.1804,0.5063,1.7122l27.8704,47.7778L21.0666,79.0781  L52.0232,104.3035z" fill="#D8D8D8"/><path d="M143.5673,153.7966l27.8723-47.781c0.3103-0.5317,0.4609-1.1194,0.5063-1.7122l30.9585-25.2253  L143.5673,153.7966z" fill="#D8D8D8"/><path d="M170.2292,95.3811l-15.3667-52.9294l32.3313-17.4763l25.5715,35.8003  c-0.0686,0.0491-0.1526,0.0693-0.2183,0.1228L170.2292,95.3811z" fill="#FFFFFF"/></svg>